# xmcd CD database file
#
# Track frame offsets:
#	150
#	23130
#	40745
#	55046
#	73690
#	94649
#	112611
#	128322
#	142886
#	162509
#	186447
#
# Disc length: 2710 seconds
#
# Revision: 0
# Processed by: cddbd v1.5.2PL0 Copyright (c) Steve Scherf et al.
# Submitted via: CDex 1.70beta2
#
DISCID=840a940b
DTITLE=Craig Stewart - Bellbirds and Blackboys
DYEAR=2007
DGENRE=Country
TTITLE0=Street and Headstones
TTITLE1=The Great Divide
TTITLE2=A Country Boy
TTITLE3=This Old Town and Me
TTITLE4=Ten Years In Cockatoo
TTITLE5=This Bar
TTITLE6=It's Time To Go
TTITLE7=Bellbirds and Blackboys
TTITLE8=We're Real Aussies
TTITLE9=Raining On The Rock
TTITLE10=Only The Two Of Us Here Tonight
EXTD=YEAR: 2007
EXTT0=
EXTT1=
EXTT2=
EXTT3=
EXTT4=
EXTT5=
EXTT6=
EXTT7=
EXTT8=
EXTT9=
EXTT10=
PLAYORDER=
